name C:\Users\u0101727\Documents\MyRepositories\paper-ad\trackingsimulations_3d\Results\TrackSim\IK_c16.mot
datacolumns 32
datarows 14
range 3.85000000 4.05800000
endheader
time	pelvis_tilt	pelvis_list	pelvis_rotation	pelvis_tx	pelvis_ty	pelvis_tz	hip_flexion_l	hip_adduction_l	hip_rotation_l	hip_flexion_r	hip_adduction_r	hip_rotation_r	knee_angle_l	knee_angle_r	ankle_angle_l	ankle_angle_r	subtalar_angle_l	subtalar_angle_r	lumbar_extension	lumbar_bending	lumbar_rotation	arm_flex_l	arm_add_l	arm_rot_l	arm_flex_r	arm_add_r	arm_rot_r	elbow_flex_l	elbow_flex_r	pro_sup_l	pro_sup_r	
          3.85000000	          0.29764735	         -3.02242464	          7.11080993	          0.02640425	          0.92242678	         -0.22398788	        -11.49844458	         -4.77707478	          1.38104605	         26.52524283	          4.44473416	         -7.54824001	        -36.08664417	        -22.75781492	         -4.15534847	         -5.99175680	         13.33776446	        -10.99460025	         -3.96189978	          5.52511750	         -8.62565003	         -1.76254817	        -14.53230641	         19.20578526	         -9.28543340	        -15.61577164	         14.50082827	         22.96881228	         11.49073362	         86.51662706	         86.51662706	
          3.86600000	          0.45671402	         -4.05338240	          6.94069536	          0.05010791	          0.92319142	         -0.22272578	         -9.52895261	         -6.01256808	          1.23582750	         25.61082025	          5.87802933	         -7.47651873	        -40.34833393	        -24.04285898	        -10.31595045	         -4.01209854	         11.97586649	        -11.15722210	         -3.76902125	          6.84886534	         -8.18873931	         -2.26024923	        -14.03264078	         19.48215865	         -9.05940513	        -15.90999928	         14.48169570	         21.88398192	         11.81014994	         86.51662706	         86.51662706	
          3.88200000	          0.64952232	         -4.90057069	          6.86034231	          0.07294859	          0.92452014	         -0.22172025	         -7.20300470	         -6.86265303	          1.79887769	         24.32581860	          7.06490667	         -7.50871797	        -44.67749097	        -24.72997283	        -15.54032853	         -2.00977613	         10.73682699	        -10.96175210	         -3.75580824	          7.95757693	         -7.76955781	         -2.62320370	        -13.59645473	         19.90456196	         -8.72884087	        -16.20484535	         14.34732333	         20.84059775	         12.33130272	         86.51662706	         86.51662706	
          3.89800000	          0.86030607	         -5.59336082	          6.87833502	          0.09485110	          0.92637181	         -0.22093583	         -4.55289472	         -7.37282319	          2.78961317	         22.76597815	          8.05028183	         -7.59961641	        -49.14052862	        -24.89490352	        -18.16639529	         -0.18807173	          9.70502080	        -10.58918813	         -3.90291774	          8.87848928	         -7.35750554	         -2.83726818	        -13.24110740	         20.47382103	         -8.31046571	        -16.50254319	         14.11777431	         19.88682185	         13.08104299	         86.51662706	         86.51662706	
          3.91400000	          1.08626848	         -6.11483719	          7.01489908	          0.11591565	          0.92878362	         -0.22036795	         -1.69594654	         -7.54842459	          4.01440077	         20.98689640	          8.82336875	         -7.73159621	        -53.38503632	        -24.62297370	        -19.14419559	          1.37565528	          8.07132708	        -10.11716803	         -4.18287103	          9.58820634	         -6.97587857	         -2.92631078	        -12.98562613	         21.15409445	         -7.84485955	        -16.79921009	         13.81819322	         19.06394411	         14.08932655	         86.51662706	         86.51662706	
          3.93000000	          1.30406305	         -6.40790365	          7.26742666	          0.13629426	          0.93174715	         -0.21999274	          1.33826001	         -7.34380233	          5.40266454	         19.05724914	          9.32852326	         -7.89169247	        -57.32458522	        -24.02347964	        -18.52670039	          2.70191625	          6.42388619	         -9.55214075	         -4.54111071	         10.01347828	         -6.64547500	         -2.93365010	        -12.84582707	         21.87297893	         -7.37092883	        -17.08271092	         13.47508196	         18.39506449	         15.36365529	         86.51662706	         86.51662706	
          3.94600000	          1.48245868	         -6.45098715	          7.58322960	          0.15618821	          0.93515075	         -0.21972217	          4.48480120	         -6.76347970	          6.79822073	         17.04664562	          9.55595201	         -8.05857274	        -60.78064406	        -23.19610709	        -16.78656122	          3.82233550	          5.06195097	         -8.89573975	         -4.90968708	         10.12003279	         -6.34631948	         -2.91874129	        -12.82246309	         22.53707229	         -6.91956009	        -17.34855446	         13.10945486	         17.89956431	         16.87736791	         86.51662706	         86.51662706	
          3.96200000	          1.59387670	         -6.25267277	          7.88257284	          0.17578539	          0.93881997	         -0.21944523	          7.66352055	         -5.85572753	          8.01491903	         15.01776712	          9.52917945	         -8.19855086	        -63.56173396	        -22.22863115	        -14.44704727	          4.76371514	          3.90430309	         -8.16643678	         -5.23205222	          9.91035305	         -6.02813159	         -2.93962739	        -12.90230007	         23.04580399	         -6.50636387	        -17.59887046	         12.73773108	         17.59413734	         18.57657107	         86.51662706	         86.51662706	
          3.97800000	          1.61820592	         -5.84811231	          8.05770480	          0.19521974	          0.94254278	         -0.21901399	         10.79621759	         -4.71134030	          8.88900168	         13.03678009	          9.30639474	         -8.22839467	        -65.54478421	        -21.21042933	        -11.77455017	          5.52920394	          2.98189046	         -7.44234257	         -5.47776002	          9.41723718	         -5.60100846	         -3.04151970	        -13.06303252	         23.30737508	         -6.13420299	        -17.84289511	         12.37316522	         17.49580614	         20.39918326	         86.51662706	         86.51662706	
          3.99400000	          1.55131460	         -5.28023520	          8.03825597	          0.21454945	          0.94610561	         -0.21834523	         13.81364575	         -3.43408567	          9.33425178	         11.16008436	          8.93160198	         -8.10338975	        -66.62834424	        -20.23237605	         -9.09051002	          6.15448509	          2.25618807	         -6.75742330	         -5.64421728	          8.68990983	         -5.00983091	         -3.24461041	        -13.27820287	         23.26447696	         -5.78668118	        -18.09373872	         12.02423475	         17.60333129	         22.28898178	         86.51662706	         86.51662706	
          4.01000000	          1.41190066	         -4.62119029	          7.80585370	          0.23379872	          0.94933169	         -0.21743418	         16.65201350	         -2.15830484	          9.33961450	          9.40847927	          8.46471166	         -7.82375982	        -66.75343017	        -19.34447306	         -6.57875732	          6.67481086	          1.51429533	         -6.10779445	         -5.74953471	          7.82067976	         -4.24911140	         -3.54482351	        -13.51468858	         22.91089759	         -5.43314556	        -18.37009302	         11.69413289	         17.89005866	         24.19459666	         86.51662706	         86.51662706	
          4.02600000	          1.24133768	         -3.96990822	          7.37692362	          0.25298628	          0.95209229	         -0.21630635	         19.25364148	         -1.03321912	          8.97269703	          7.75260538	          8.00212163	         -7.41049884	        -65.93083138	        -18.53414022	         -4.28436885	          7.09360598	          0.73370611	         -5.51334166	         -5.83068163	          6.93621951	         -3.34073854	         -3.91925621	        -13.73658185	         22.28602020	         -5.04138932	        -18.69212271	         11.38467907	         18.30628895	         26.07085708	         86.51662706	         86.51662706	
          4.04200000	          1.08450631	         -3.39796592	          6.80961133	          0.27210670	          0.95428473	         -0.21504127	         21.56950911	         -0.14618433	          8.35803923	          6.15658787	          7.60214251	         -6.93433096	        -64.18528501	        -17.80218205	         -2.29533476	          7.45333061	         -0.24089410	         -4.93610501	         -5.92991168	          6.13316858	         -2.34828032	         -4.32990952	        -13.91594397	         21.46564178	         -4.58107077	        -19.07147480	         11.10148271	         18.78094829	         27.88440976	         86.51662706	         86.51662706	
          4.05800000	          0.98128726	         -2.93540709	          6.16279632	          0.29116811	          0.95583599	         -0.21372083	         23.54386489	          0.48114564	          7.61287204	          4.58353912	          7.28061417	         -6.46383999	        -61.55969143	        -17.16493400	         -0.43397330	          7.82338859	         -1.42235225	         -4.30605996	         -6.08848342	          5.45788132	         -1.33648974	         -4.73741901	        -14.03608086	         20.54610880	         -4.03191846	        -19.50978958	         10.85737149	         19.23756673	         29.61082869	         86.51662706	         86.51662706	
